<?xml version="1.0" encoding="UTF-8"?>
<svg id="Camada_1" data-name="Camada 1" xmlns="http://www.w3.org/2000/svg" viewBox="0 0 16 16">
  <defs>
    <style>
      .cls-1 {
        fill: #fff;
      }
    </style>
  </defs>
  <path class="cls-1" d="m8,0C3.6,0,0,3.6,0,8s3.6,8,8,8,8-3.6,8-8S12.4,0,8,0m3.7,11.5c-.1.2-.5.3-.7.2-1.9-1.1-4.2-1.4-7-.8-.3,0-.5-.1-.6-.4s.1-.5.4-.6c3-.7,5.7-.4,7.8.9.2.1.3.5.2.7m1-2.2c-.2.3-.6.4-.9.2-2.1-1.3-5.4-1.7-8-.9-.3,0-.7-.1-.8-.5,0-.3,0-.6.4-.7,2.9-.9,6.5-.5,9,1.1.3.2.4.6.2.9m0-2.3c-2.6-1.5-6.8-1.7-9.3-.9-.4.1-.8-.1-.9-.5s.1-.8.5-.9c2.8-.9,7.5-.7,10.5,1.1.4.2.5.7.3,1s-.7.5-1,.3h0"/>
</svg>