<?xml version="1.0" encoding="UTF-8"?>
<svg id="Camada_1" data-name="Camada 1" xmlns="http://www.w3.org/2000/svg" viewBox="0 0 16 11.24">
  <defs>
    <style>
      .cls-1 {
        fill: #fff;
      }
    </style>
  </defs>
  <path class="cls-1" d="m8.05,0h.09c.82,0,4.99.03,6.11.33.69.19,1.23.73,1.41,1.42.1.38.17.88.22,1.4v.1s.03.26.03.26v.1c.07.91.08,1.77.08,1.96v.07c0,.19-.01,1.11-.08,2.06v.1s-.02.1-.02.1c-.05.57-.12,1.14-.23,1.56-.19.69-.72,1.23-1.41,1.42-1.16.31-5.57.33-6.18.34h-.14c-.31,0-1.59,0-2.93-.05h-.17s-.09,0-.09,0h-.17s-.17-.01-.17-.01c-1.11-.05-2.17-.13-2.65-.26-.69-.19-1.23-.73-1.41-1.42-.11-.42-.19-.99-.23-1.56v-.11s-.02-.1-.02-.1c-.05-.68-.08-1.36-.08-2.04v-.12c0-.22,0-.96.06-1.78v-.1s0-.05,0-.05v-.1s.03-.26.03-.26v-.1c.06-.52.13-1.02.23-1.4.19-.69.72-1.23,1.41-1.42.49-.13,1.54-.21,2.65-.26h.17s.17-.01.17-.01h.09s.17,0,.17,0C5.95.02,6.91,0,7.86,0h.19Zm-1.65,3.21v4.82l4.16-2.41-4.16-2.41Z"/>
</svg>